# xmcd
#
# Track frame offsets:
#	150
#	11490
#	41332
#	57322
#	74547
#	88032
#	111367
#	125590
#	139107
#	167057
#	184882
#	196845
#
# Disc length: 2927 seconds
#
# Revision: 2
# Processed by: cddbd v1.5.2PL0 Copyright (c) Steve Scherf et al.
# Submitted via: dBpowerAMP V4.0
#
DISCID=a90b6d0c
DTITLE=Various Artist - Negro Blues and Hollers
DYEAR=1941
DGENRE=Blues
TTITLE0=Camp Hollers (Son House, Willie Brown and Fiddlin Joe Martin)
TTITLE1=Cornfield Hollers (Charley Berry)
TTITLE2=I"m a Soldier in the Army of the Lord (Silent Grove Baptist Church )
TTITLE3=I'm Gonna Lift Up a Standard for My King (Church of God in Christ)
TTITLE4=Worried Life Blues (David Edwards)
TTITLE5=Ragged and Dirty (William Brown)
TTITLE6=Special Rider Blues (Son House)
TTITLE7=Depot B.lues (Son House)
TTITLE8=Mississippi Blues (William Brown)
TTITLE9=Four O'clock Flower Blues (William Blackwell and William Brown)
TTITLE10=East St. Louis Blues (William Brown)
TTITLE11=Low Down Dirty Dog Blues (Son House)
EXTD=
EXTT0=
EXTT1=
EXTT2=
EXTT3=
EXTT4=
EXTT5=
EXTT6=
EXTT7=
EXTT8=
EXTT9=
EXTT10=
EXTT11=
PLAYORDER=
